<svg xmlns="http://www.w3.org/2000/svg" height="24px" width="24px" viewBox="0 0 96 96" fill="currentColor">
<path d="
	M61.999992,12.999964 
	C64.795029,12.999955 67.106972,12.999955 69.706879,12.999955 
	C69.706879,36.950474 69.706879,60.679470 69.706879,84.704803 
	C64.717834,84.704803 59.649204,84.704803 54.287048,84.704803 
	C54.287048,61.037659 54.287048,37.308620 54.287048,12.999973 
	C56.653599,12.999973 59.085243,12.999973 61.999992,12.999964Z"/>
<path d="
	M46.000000,59.999992 
	C46.000000,68.467270 46.000000,76.434547 46.000000,84.700066 
	C40.730450,84.700066 35.665417,84.700066 30.277250,84.700066 
	C30.195662,84.052017 30.014246,83.280510 30.013664,82.508865 
	C29.997828,61.543259 29.977686,40.577602 30.014292,19.612047 
	C30.024904,13.533392 31.375422,12.526347 37.387524,13.752058 
	C37.860725,13.848532 38.347599,13.990748 38.819576,13.963538 
	C46.000229,13.549562 45.999962,13.543783 45.999989,20.563820 
	C46.000034,33.542545 46.000000,46.521271 46.000000,59.999992Z"/>
</svg>