<svg xmlns="http://www.w3.org/2000/svg" height="24px" width="24px" viewBox="0 0 96 96" fill="currentColor">
<path d="
	M22.092413,12.999998 
	C25.880682,13.000000 29.182236,13.000000 32.740196,13.000000 
	C32.740196,37.017197 32.740196,60.745262 32.740196,84.737137 
	C27.651901,84.737137 22.583130,84.737137 17.255136,84.737137 
	C17.255136,60.973400 17.255136,37.245518 17.255136,12.999996 
	C18.727116,12.999996 20.166407,12.999996 22.092413,12.999998Z"/>
<path d="
  M44.160503,13.000210 
	C48.608810,13.000011 52.572201,13.000011 56.763279,13.000011 
	C56.763279,37.064632 56.763279,60.792915 56.763279,84.760925 
	C51.602036,84.760925 46.533768,84.760925 40.999958,84.760925 
	C40.999958,77.049500 40.999958,69.438522 40.999962,61.827541 
	C40.999973,46.835247 40.990055,31.842937 41.012814,16.850677 
	C41.015602,15.014576 40.229301,12.508732 44.160503,13.000210Z"/>
<path d="
	M64.999962,61.999966 
	C64.999962,45.531494 64.999962,29.563017 64.999962,13.297729 
	C70.276215,13.297729 75.344086,13.297729 80.709267,13.297729 
	C80.709267,36.951424 80.709267,60.677227 80.709267,84.702072 
	C75.722801,84.702072 70.654510,84.702072 64.999962,84.702072 
	C64.999962,77.357521 64.999962,69.928741 64.999962,61.999966Z"/>
</svg>